<?xml version="1.0" standalone="no"?>
<!DOCTYPE svg PUBLIC "-//W3C//DTD SVG 1.1//EN" "http://www.w3.org/Graphics/SVG/1.1/DTD/svg11.dtd" >
<!--
2013-9-30: Created.
-->
<svg>
<metadata>
Created by iconfont
</metadata>
<defs>

<font id="iconfont" horiz-adv-x="1024" >
  <font-face
    font-family="iconfont"
    font-weight="500"
    font-stretch="normal"
    units-per-em="1024"
    ascent="896"
    descent="-128"
  />
    <missing-glyph />
    
    <glyph glyph-name="x" unicode="x" horiz-adv-x="1001"
d="M281 543q-27 -1 -53 -1h-83q-18 0 -36.5 -6t-32.5 -18.5t-23 -32t-9 -45.5v-76h912v41q0 16 -0.5 30t-0.5 18q0 13 -5 29t-17 29.5t-31.5 22.5t-49.5 9h-133v-97h-438v97zM955 310v-52q0 -23 0.5 -52t0.5 -58t-10.5 -47.5t-26 -30t-33 -16t-31.5 -4.5q-14 -1 -29.5 -0.5
t-29.5 0.5h-32l-45 128h-439l-44 -128h-29h-34q-20 0 -45 1q-25 0 -41 9.5t-25.5 23t-13.5 29.5t-4 30v167h911zM163 247q-12 0 -21 -8.5t-9 -21.5t9 -21.5t21 -8.5q13 0 22 8.5t9 21.5t-9 21.5t-22 8.5zM316 123q-8 -26 -14 -48q-5 -19 -10.5 -37t-7.5 -25t-3 -15t1 -14.5
t9.5 -10.5t21.5 -4h37h67h81h80h64h36q23 0 34 12t2 38q-5 13 -9.5 30.5t-9.5 34.5q-5 19 -11 39h-368zM336 498v228q0 11 2.5 23t10 21.5t20.5 15.5t34 6h188q31 0 51.5 -14.5t20.5 -52.5v-227h-327z" />
    

    
    <glyph glyph-name="bitianbiaoshi" unicode="&#58885;" d="M464.97850564 449.68687986V670.42534744h95.47511545v-220.73846758l209.94977968 68.26470744 29.50181079-90.84457252-209.94977968-68.21697005 129.75068239-178.53846675-77.23936851-56.13936811-129.75068239 178.53846676-129.70294502-178.53846676-77.23936851 56.13936811 129.70294502 178.53846675L225.57465256 427.10701478l29.50181079 90.79683514 209.90204229-68.21697005z"  horiz-adv-x="1026" />

    
    <glyph glyph-name="caidan" unicode="&#58886;" d="M114.75862062 864h1026.20689688a82.75862063 82.75862063 0 1 0 0-165.51724125h-1026.20689687a82.75862063 82.75862063 0 0 0 0 165.51724125z m1e-8-397.24137938h1026.20689687a82.75862063 82.75862063 0 1 0 0-165.51724125h-1026.20689687a82.75862063 82.75862063 0 1 0 0 165.51724126z m0-397.24137937h1026.20689687a82.75862063 82.75862063 0 1 0 0-165.51724125h-1026.20689687a82.75862063 82.75862063 0 1 0 0 165.51724125z"  horiz-adv-x="1271" />

    
    <glyph glyph-name="dizhi" unicode="&#58887;" d="M511.99961562 863.99904C299.93582844 863.99904 128 696.71920687 128 490.31941406c0-164.39983594 243.02375719-455.85554438 342.28765781-568.22343187 10.41598969-11.51998875 25.43997469-18.09598219 41.18395875-18.09598219 15.74398406 0 30.71996906 6.57599344 41.13595875 18.09598219C652.975475 34.17586969000001 895.99923219 325.91957813 895.99923219 490.31941406a368.63963156 368.63963156 0 0 1-112.4638875 264.23973563A389.47161094 389.47161094 0 0 1 511.99961562 863.99904z m0-550.89544875c-66.57593344 0-126.57587344 39.02396063-152.06384718 98.87990063a157.00784344 157.00784344 0 0 0 35.71196437 174.47982562 167.90383219 167.90383219 0 0 0 179.32782 34.75196531c61.48793813-24.81597563 101.61589875-83.18391656 101.61589875-147.98385187 0-88.41591187-73.67992594-160.12783969-164.59183593-160.12783969z"  horiz-adv-x="1024" />

    
    <glyph glyph-name="dianzan" unicode="&#58888;" d="M922.1 496.62s152.46 25.5 127.05-95.58c-25.41-121.08-76.2-458.82-158.79-497.04H287V464.76s177.84 127.44 190.53 248.52c12.72 114.72 19.05 184.8 133.38 133.8 108-50.94 57.15-216.63 31.77-350.46h279.45zM32 480h191.25V-96H32V480z"  horiz-adv-x="1088" />

    
    <glyph glyph-name="dianhua" unicode="&#58889;" d="M538.47789125 851.21454563l432-431.97818157a43.63636406 43.63636406 0 0 0 0-61.70181843l-432-432a43.63636406 43.63636406 0 0 0-61.70181844 0l-432 432a43.63636406 43.63636406 0 0 0 0 61.70181843l432 432a43.63636406 43.63636406 0 0 0 61.70181844 0z m69.97090875-650.46545438c30.61090875 0 64.21090875 35.67272719 71.91272719 59.71636313 4.90909125 15.31636406-1.30909125 22.25454562-4.84363594 24.56727281-24.61090875 20.55272719-67.96363594 48.21818156-84.91636406 51.73090875l-1.17818156 0.26181844-1.22181844-0.17454563c-9.6-1.39636406-15.44727281-7.72363594-20.57454563-13.30909031-6.76363594-7.30909125-11.17090875-11.36727281-20.53090875-10.08-2.88 0.39272719-15.12 5.30181844-54 50.72727281l-16.58181843 19.81090875c-38.79272719 47.34545438-41.23636406 60.17454563-41.06181844 62.98909125 0.61090875 9.29454562 5.60727281 12.54545438 14.4 17.45454469 6.67636406 3.73090875 14.24727281 7.96363594 17.60727281 16.8l0.43636406 1.13454562v1.2c-0.08727281 16.8-19.04727281 63.70909125-34.38545437 90.67636407-1.68 3.92727281-6.52363594 10.49454562-19.85454563 10.49454562-27.05454562 0-74.46545437-26.61818156-79.54909125-58.18909125-7.2-44.72727281 23.60727281-113.41090875 82.38545438-183.73090875l21.70909125-25.96363687c58.8-70.32 121.68-113.71636406 168.24-116.07272719l2.00727281-0.04363594z"  horiz-adv-x="1024" />

    
    <glyph glyph-name="dingdanzhongxin" unicode="&#58890;" d="M415.62105219 762.94736813C392 762.94736813 373.05263188 785.5831575 373.05263188 813.54947344 373.05263188 841.44 391.97473719 864 415.62105219 864h192.70736906C632 864 650.94736812 841.44 650.94736812 813.54947344 650.94736812 785.5831575 632 762.94736813 609.56631594 762.94736813h-193.94526375z m404.38736906 0C893.65052656 762.94736813 928.84210531 718.08 928.84210531 653.35578937V12.37894781c0-77.91157875-37.56631594-108.37894781-114.84631594-108.37894781H200.50526281C123.2-96 95.15789469-57.094737190000046 95.15789469 12.37894781V653.35578937C95.15789469 718.08 114.76210531 762.94736813 194.51789469 762.94736813h61.97052656s35.64631594-10.53473719 35.62105219-15.84c0-40.1431575 29.38105219-79.62947344 66.06315844-79.62947344h301.13684156c34.93894781 0 64.24421062 39.48631594 64.24421062 79.62947344 0 5.30526281 39.71368406 15.84 39.71368407 15.84h56.74105312z m-100.69894781-632.84210532c15.6631575 0 26.52631594 19.07368406 26.52631593 34.7368425-1.23789469 16.74947344-14.50105219 28.90105219-30.16421062 28.90105219H290.61894781c-15.73894781 0-29.00210531-13.36421063-29.00210531-28.90105219 0-15.6631575 15.6631575-34.7368425 31.37684156-34.7368425h426.31578938z m1.69263187 169.66736907c15.71368406 0 32.23578937 16.8 32.23578938 32.41263093-1.18736813 16.77473719-14.45052656 31.25052656-30.18947344 31.25052657H298.02105219c-15.6631575 0-28.95157875-15.63789469-28.95157875-31.25052657 0-15.61263187 9.97894781-32.41263187 25.69263187-32.41263093h426.26526281z m0 174.31578937c15.71368406 0 32.23578937 16.74947344 32.23578938 32.41263094-1.18736813 16.72421063-14.45052656 31.22526281-30.18947344 31.22526375H298.02105219c-15.6631575 0-28.95157875-15.63789469-28.95157875-31.22526375 0-15.6631575 9.97894781-32.38736813 25.69263187-32.38736813h426.26526281z"  horiz-adv-x="1024" />

    
    <glyph glyph-name="fenxiang" unicode="&#58891;" d="M771.09333313 838.68444469C711.71555562 896.35555594 710.40000031 837.43999969 710.40000031 837.43999969v-283.02222188C201.24444406 492.55111125 68.97777781 206.93333343999996 34.59555594 62.151111560000004c-12.12444469-51.12888844 21.2622225-40.88888906 39.78666656-21.76000031 229.61777813 236.69333344 635.16444469 193.60000031 635.16444375 193.60000031v-293.2266675c-3.37777781-77.36888906 66.91555594-8.60444437 66.91555594-8.60444437l452.40888937 423.11111156c29.79555562 26.63111156-5.19111094 58.80888844-5.19111187 58.80888844L771.09333313 838.68444469z"  horiz-adv-x="1289" />

    
    <glyph glyph-name="gerenmingpian" unicode="&#58892;" d="M92 864h1080a60 60 0 0 0 60-60v-840a60 60 0 0 0-60-60H92a60 60 0 0 0-60 60V804a60 60 0 0 0 60 60z m735-630a15 15 0 0 1-15-15v-30a15 15 0 0 1 15-15h210a15 15 0 0 1 15 15v30a15 15 0 0 1-15 15h-210z m0 180a15 15 0 0 1-15-15v-30a15 15 0 0 1 15-15h210a15 15 0 0 1 15 15v30a15 15 0 0 1-15 15h-210z m0 180a15 15 0 0 1-15-15v-30a15 15 0 0 1 15-15h210a15 15 0 0 1 15 15v30a15 15 0 0 1-15 15h-210z m-245.76-69.48A133.53 133.53 0 0 1 452.06 624a133.35 133.35 0 1 1-65.7-249.57A239.79 239.79 0 0 1 212 158.13a14.1 14.1 0 0 1 13.26-14.13h453.3a14.1 14.1 0 0 1 13.44 14.1 239.79 239.79 0 0 1-174.21 216.33 133.35 133.35 0 0 1 63.45 150.09z"  horiz-adv-x="1280" />

    
    <glyph glyph-name="houtaiguanli" unicode="&#58893;" d="M605.54666656 330.66666655999995H418.41777781C244.55111094 330.66666655999995 103.11111125 188.65777780999997 103.11111125 14.044444689999978v-18.77333344C103.11111125-96 242.27555562-96 418.41777781-96h187.12888875C774.75555594-96 920.88888875-96 920.88888875-4.72888875000001v18.79111125C920.88888875 188.62222219 779.43111125 330.66666655999995 605.54666656 330.66666655999995zM512 366.22222219c137.24444438 0 248.88888844 111.64444406 248.88888844 248.88888937S649.24444438 864 512 864C374.77333344 864 263.11111156 752.3377781199999 263.11111156 615.1111115599999s111.66222188-248.88888844 248.88888844-248.88888937z"  horiz-adv-x="1024" />

    
    <glyph glyph-name="jiagouwuche" unicode="&#58894;" d="M512-96C246.896-96 32 118.89599999999996 32 384S246.896 864 512 864s480-214.896 480-480-214.896-480-480-480z m27.48 763.632h-34.032a24 24 0 0 1-24-24v-216h-207.264a24 24 0 0 1-24-24V369.6a24 24 0 0 1 24-24h207.264v-216a24 24 0 0 1 24-24h34.032a24 24 0 0 1 24 24v216h207.288a24 24 0 0 1 24 24v34.032a24 24 0 0 1-24 24h-207.288v216a24 24 0 0 1-24 24z"  horiz-adv-x="1024" />

    
    <glyph glyph-name="pinglun" unicode="&#58895;" d="M984.35199969 864H168.00000031C92.99199969 864 32 804.79999969 32 731.96800031v-528.73600031c0-72.83200031 60.99199969-132.03199969 136.00000031-132.03199969h266.976L576.00000031-96l140.67199969 167.20000031h267.32800031c75.00799969 0 136.00000031 59.20000031 135.99999938 132.03199969V731.96800031C1120.352 804.79999969 1059.36000031 864 984.35199969 864zM288.00000031 415.99999969a64.032 64.032 0 0 0 0 128.00000062 64.032 64.032 0 0 0 0-128.00000062z m288 0a64.032 64.032 0 0 0 0 128.00000062 64.032 64.032 0 0 0 0-128.00000062z m288 0a64.032 64.032 0 0 0 0 128.00000062 64.032 64.032 0 0 0 0-128.00000062z"  horiz-adv-x="1160" />

    
    <glyph glyph-name="huoqurenmai" unicode="&#58896;" d="M408.45191281 222.00511874999995a41.25912938 41.25912938 0 0 0-17.74970718-34.37005969c-14.06047875-10.08891094-29.13737812-18.6155475-44.94835875-25.42932656a1643.02437562 1643.02437562 0 0 1-58.21828782-27.74450625 209.70253875 209.70253875 0 0 1-57.08893312-42.16261406H210.00528687a281.47309594 281.47309594 0 0 0-77.09735156 9.41129718 190.31526469 190.31526469 0 0 0-55.95957656 24.73289063A110.86508812 110.86508812 0 0 0 43.23708969 161.52811874999998 77.45498156 77.45498156 0 0 0 32 200.92381124999997a42.91551844 42.91551844 0 0 0 23.82940594 37.814595 412.57247438 412.57247438 0 0 0 52.36446093 26.57750531c17.88146625 7.52903813 35.36765719 16.01802938 52.36446188 25.44814875a39.15099937 39.15099937 0 0 1 23.81058281 34.37005969c0 14.09812406-4.57389094 27.80097375-13.02523594 38.96277281a1628.22981562 1628.22981562 0 0 0-28.535055 40.54387125 301.9709025 301.9709025 0 0 0-28.55387718 53.39970375 202.11703219 202.11703219 0 0 0-13.02523688 78.37728844c-0.09411281 22.39888875 2.25871125 44.77895531 6.96436031 66.66963375a197.44902844 197.44902844 0 0 0 21.11895282 56.61836813 113.80141313 113.80141313 0 0 0 35.5182375 38.96277281 88.65442594 88.65442594 0 0 0 50.5574925 14.64397969 140.56714406 140.56714406 0 0 0 64.73090625-13.28875219 519.974205 519.974205 0 0 1-6.51261844-83.19587344 533.92174875 533.92174875 0 0 1 11.23708969-118.67646562c6.36203719-29.11855594 15.94273875-57.40891688 28.535055-84.32522813l-30.1161525-41.71087219c-9.41129813-13.34522062-14.30517281-29.41971656-13.92872063-45.83302031 0.30116156-10.59712125 6.02323031-20.23429031 15.05807625-25.44814969 11.42531531-7.77373219 23.52824437-14.43693094 36.17702906-19.95195093l44.94835782-19.46256469c14.49339844-6.00440813 28.535055-13.04405906 42.03085687-21.08130656a104.84185781 104.84185781 0 0 0 0-17.88146625l0.90348375-0.45174188z m543.14482125 99.23272406c0.22587094-9.31718531 4.96916531-17.95675594 12.72407438-23.15179219a165.41297063 165.41297063 0 0 1 31.67842875-18.97317656c12.64878469-6.02323031 26.53986-11.82058969 41.65440375-17.37325594 14.21106-5.23268156 28.10213531-11.25591188 41.63558156-18.06969187 11.48178375-5.59031062 22.15419469-12.76171969 31.69725094-21.28835531 7.867845-6.73848938 12.49820344-16.50741656 12.72407531-26.85984469a64.63679344 64.63679344 0 0 0-16.65799781-43.76253469 131.11820156 131.11820156 0 0 0-44.42132532-31.941945c-20.38487156-9.20424937-41.82380719-15.81098062-63.84624468-19.68843469-24.35643844-4.5174225-49.03286156-7.15258594-73.78457532-7.867845a264.570405 264.570405 0 0 1-66.63198843 33.12776813c-23.75411531 7.84902281-46.11535969 14.94514125-67.10255344 21.26953312a319.72060969 319.72060969 0 0 0-54.35965594 21.30717844 48.12937688 48.12937688 0 0 0-27.29276437 34.25712375 52.30799344 52.30799344 0 0 0 28.91150718 34.74651188c17.12856187 9.37365281 34.72768875 17.7873525 52.74091313 25.22227781a410.03142375 410.03142375 0 0 1 51.1409925 25.24110094 39.15099937 39.15099937 0 0 1 23.13297 33.57951093 62.9992275 62.9992275 0 0 1-19.44374156 43.29196969 568.95059906 568.95059906 0 0 0-36.55348032 46.30358531 465.59572594 465.59572594 0 0 1 29.38207125 92.60717063c8.2819425 41.69204906 12.17821969 84.1370025 11.57589657 126.67606875 0 10.50300844-0.5270325 21.00601688-1.61874282 31.47138a732.68835844 732.68835844 0 0 1-3.95274562 31.49020312 94.11297844 94.11297844 0 0 0 53.45617219 20.36604844 170.58918469 170.58918469 0 0 0 83.27116312-17.35443375 127.05252094 127.05252094 0 0 0 46.28476313-43.06609875c10.61594437-16.94033625 17.76853031-35.83822219 21.04366125-55.56430219 3.31277719-18.20145 5.08210125-36.62877094 5.32679437-55.11256031a176.10420469 176.10420469 0 0 0-16.18743187-81.257145 275.78867156 275.78867156 0 0 0-35.63117344-53.26794562l-34.70886656-41.67322688a67.44136031 67.44136031 0 0 1-16.18743188-44.91071344v0.22587094zM645.57897313 223.2662325c0.45174188-16.07449688 8.16900656-31.0572825 20.91190406-40.65680625 15.35923781-13.17581719 32.20546125-24.45055219 50.16221719-33.63597844a698.09242781 698.09242781 0 0 1 65.91673031-30.21026625 554.38191 554.38191 0 0 0 63.90271218-31.358445 225.17471156 225.17471156 0 0 0 50.16221719-37.47578719A66.21789188 66.21789188 0 0 0 916.66199656 1.9877981199999795c0-12.42291281-10.05126562-24.29997094-30.15379875-35.66881874a378.48475406 378.48475406 0 0 0-79.86427312-31.33962188 766.26786938 766.26786938 0 0 0-114.51667219-22.71887344 1050.1126125 1050.1126125 0 0 0-132.71812219-8.18782875 1019.168265 1019.168265 0 0 0-137.6872875 8.18782875 550.76797125 550.76797125 0 0 0-100.32443437 22.71887344 193.68450938 193.68450938 0 0 0-59.85585469 30.66200812A47.95997344 47.95997344 0 0 0 239.04855219 0.8396193700000367a66.18024656 66.18024656 0 0 0 20.02724156 47.94115126 212.05536281 212.05536281 0 0 0 50.16221812 36.8169975 572.37631125 572.37631125 0 0 0 64.78737375 30.21026531 782.06002687 782.06002687 0 0 1 65.23911657 29.08091062 228.78865031 228.78865031 0 0 1 51.31039593 34.52064094 56.80659375 56.80659375 0 0 1 20.00841938 43.40490563 110.69568469 110.69568469 0 0 1-10.12655625 47.47058624 303.60846844 303.60846844 0 0 1-25.86224719 45.43774594l-33.07130062 47.24471438a418.33218844 418.33218844 0 0 0-33.97478438 59.53587 388.89364875 388.89364875 0 0 0-26.99160281 74.97039937 428.68461656 428.68461656 0 0 0-10.35242719 99.0444975 366.381825 366.381825 0 0 0 44.98600313 194.24918813A151.89834656 151.89834656 0 0 0 554.00704531 863.68622719c42.72729187 2.01401813 85.30400344-6.30556969 124.17266344-24.29997094a173.80784812 173.80784812 0 0 0 67.49782875-62.24632406 210.34250625 210.34250625 0 0 0 29.25031313-83.60997c3.877455-29.73970125 5.83500469-59.72409563 5.83500468-89.72731313a445.30496813 445.30496813 0 0 0-10.35242718-102.24433969 383.28451594 383.28451594 0 0 0-25.41050438-74.72570437 392.39465156 392.39465156 0 0 0-32.37486469-56.58072281c-11.55707344-16.50741656-22.36124344-32.26192875-32.41251-47.24471532a290.62087688 290.62087688 0 0 1-25.41050343-45.43774593 132.88752562 132.88752562 0 0 1-10.35242813-53.39970375l1.12935563-0.90348469z"  horiz-adv-x="1164" />

    
    <glyph glyph-name="qingchu" unicode="&#58897;" d="M512-96C246.91200031-96 32 118.91200031000005 32 384 32 649.0879996900001 246.91200031 864 512 864c265.08799969 0 480-214.91200031 480-480 0-265.08799969-214.91200031-480-480-480z m0 518.91199969L350.78400031 584.1280003100001a24 24 0 0 1-33.92000062 0l-16.992-16.96000031a24 24 0 0 1 0-33.91999969l161.21600062-161.24800031-161.21600062-161.21599969a24 24 0 0 1 0-33.92000062l16.96000031-16.992a24 24 0 0 1 33.91999969 0L512 321.08800031l161.21599969-161.21600062a24 24 0 0 1 33.92000062 0l16.992 16.96000031a24 24 0 0 1 0 33.91999969l-161.21600062 161.24800031 161.21600062 161.21599969a24 24 0 0 1 0 33.92000062l-16.96000031 16.992a24 24 0 0 1-33.91999969 0L512 422.91199969z"  horiz-adv-x="1024" />

    
    <glyph glyph-name="saoma" unicode="&#58898;" d="M32 721.7777775v-675.555555a142.2222225 142.2222225 0 0 1 142.2222225-142.2222225h675.555555a142.2222225 142.2222225 0 0 1 142.2222225 142.2222225V721.7777775a142.2222225 142.2222225 0 0 1-142.2222225 142.2222225H174.2222225a142.2222225 142.2222225 0 0 1-142.2222225-142.2222225z m274.54222219-272.58666656C305.6 408.88888875 313.29777781 348.44444438000005 265.11999969 348.44444438000005c-32.71111125 0-33.68888906 39.34222219-33.68888813 39.34222218l-21.19111125 193.81333313s-15.41333344 101.68888875 130.96888875 104.56888875c146.38222219 2.88 161.77777781-123.76888875 161.77777782-123.76888875h123.28888875s28.88888906-5.76 27.91111125-40.28444438c-0.96-34.54222219-24.07111125-33.6-24.07111125-33.6H342.18666688s-34.66666688 0.97777781-35.64444469-39.32444437z m376.24888875-367.35999938c-146.38222219-2.88-161.77777781 123.76888875-161.77777782 123.76888875h-123.28888875s-28.88888906 5.76-27.91111125 40.30222219c0.94222219 34.52444438 24.07111125 33.58222219 24.07111125 33.58222219h287.92888875s34.66666688-0.96 35.64444469 39.32444437C718.4 359.11111125 710.70222219 419.55555562 758.88000031 419.55555562c32.71111125 0 33.68888906-39.34222219 33.68888813-39.34222218l21.19111125-193.81333313s15.41333344-101.68888875-130.96888875-104.56888875z"  horiz-adv-x="1024" />

    
    <glyph glyph-name="shaixuan" unicode="&#58899;" d="M432.17998531-95.92000687999996c-8.15932031 0-15.83868 3.83968031-20.15832 3.83968032-11.99899969 8.15932031-20.13165563 23.99800031-20.13165656 35.997v347.70435844L40.37263531 799.63203094C32.21331594 811.657695 28.37363563 827.46971063 36.53295594 843.84168 44.66561094 855.84067969 56.66461156 864 72.50329156 864h879.04674563c15.83868 0 27.83768062-8.15932031 35.99700094-20.15832 8.13265594-11.99899969 3.81301594-27.864345-3.86634469-39.86334469L632.16332 291.5943675v-267.95100469c0-15.83868-8.15932031-27.83768062-23.99800031-35.997l-159.69335907-80.20664906c-4.31964-3.35971969-8.13265594-3.35971969-16.29197531-3.35972063z"  horiz-adv-x="1024" />

    
    <glyph glyph-name="shanchu" unicode="&#58900;" d="M221.08800031 21.856000310000013C221.08800031-41.75999999999999 269.91999969-96 330.14400031-96h363.648c60.25600031 0 109.056 54.24 109.056 117.85600031l72.73599938 617.24799938H148.352l72.73600031-617.24799938z m405.43999969 497.53599938h71.35999969v-495.67999969h-71.35999969v495.67999969z m-157.66399969 0h86.27199938v-495.67999969h-86.27199938v495.67999969z m-142.72000031 0h71.35999969v-495.67999969h-71.35999969v495.67999969z m531.264 269.63200031h-236.352S604.80000031 864 584.70399969 864h-145.47199969C419.19999969 864 402.87999969 789.024 402.87999969 789.024H166.56000031C136.41600031 789.024 111.99999969 761.376 111.99999969 729.6v-60.25600031h800.00000062V729.6c0 31.80799969-24.44800031 59.45599969-54.59200031 59.45599969z"  horiz-adv-x="1024" />

    
    <glyph glyph-name="shangchuantupian" unicode="&#58901;" d="M135.81241344 801.6h785.47862062c22.54344844 0 40.61793094-19.2 40.61793188-43.2v-340.8c-40.61793094 33.6-117.38482781 86.4-176.04413813 86.4-85.77103406 0-162.53793094-211.2-257.31310406-211.2-72.23172375 4.8-171.54206906 91.2-284.35862062 76.8-45.18620719-9.6-108.38068969-86.4-148.96551657-144V758.4c0 24 18.04137937 43.2 40.58482688 43.2z m189.6165525-345.6a122.21793094 122.21793094 0 0 0-90.30620719 38.4c-22.54344844 24-36.08275875 62.4-36.08275875 96s13.53931031 72 36.08275875 96a122.21793094 122.21793094 0 0 0 90.30620719 38.4c31.58068969 0 63.1944825-14.4 90.27310312-38.4 22.57655156-24 36.08275875-62.4 36.08275875-96s-13.50620719-72-36.08275875-96c-27.07862062-24-58.69241344-38.4-90.27310312-38.4zM943.8344825 864H113.26896594C68.08275875 864 32 825.6 32 777.6v-787.2C32-57.60000000000002 68.08275875-96 113.26896594-96h830.56551656C989.02068969-96 1025.10344844-57.60000000000002 1025.10344844-9.600000000000023V777.6C1025.10344844 825.6 989.02068969 864 943.8344825 864z"  horiz-adv-x="1059" />

    
    <glyph glyph-name="shijian" unicode="&#58902;" d="M512 864a480 480 0 1 1 0-960A480 480 0 0 1 512 864z m319.99999969-506.66666625H485.33333375V703.99999969a26.66666625 26.66666625 0 1 0 53.3333325 0v-293.33333344H831.99999969a26.66666625 26.66666625 0 1 0 0-53.3333325z"  horiz-adv-x="1024" />

    
    <glyph glyph-name="shouye" unicode="&#58903;" d="M961.22654188 448.6131825l-363.99989907 378.93322781A117.2799675 117.2799675 0 0 1 512 863.99973375a117.25330031 117.25330031 0 0 1-85.25331-36.47999063l-363.99989812-378.93322781C25.25346875 409.51986 30.08013406 375.70653562999996 36.26679875 361.59987280999997c4.39999875-10.02666375 19.35999469-37.57332281 62.39998312-37.57332281h53.33331844V32.5332975C152.00010031-33.68001749999996 199.52008719-96 267.06673437-96h154.93329094V212.50658062000002c0 33.06665719-5.01333187 51.49331906 28.77332531 51.49331907h122.45329875c33.75999094 0 28.77332531-18.39999469 28.77332532-51.49331906V-96h154.93329093c67.54664812 0 115.03996781 62.3199825 115.03996782 128.50663125V323.99988375H925.33321812c43.03998844 0 57.97331719 27.54665906 62.39998313 37.57332281 6.21333187 14.10666281 11.03999719 47.91998625-26.50665938 87.03997594z"  horiz-adv-x="1024" />

    
    <glyph glyph-name="sousuo" unicode="&#58904;" d="M983.41886281-6.821052190000046l-226.76210531 227.11578938c126.18947344 169.36421062 100.19368406 407.62105219-59.52 545.76C537.42307344 904.16842125 298.28202125 895.2 149.3304425 745.51578937c-148.9768425-149.70947344-157.08631594-389.25473719-18.593685-548.71578937 138.49263188-159.46105219 376.4968425-184.64842125 545.17894781-57.67578938l226.45894688-226.78736812c11.16631594-11.11578938 29.20421062-11.11578938 40.37052656 0l40.64842125 39.86526281a28.69894781 28.69894781 0 0 1 0 41.00210532zM149.40623188 459.41052656c0 158.34947344 128.18526281 286.7368425 286.28210531 286.73684156 158.14736813 0 286.30736812-128.38736812 286.30736812-286.73684156S593.83570531 172.67368406000003 435.7136 172.67368406000003a286.08 286.08 0 0 0-202.43368406 83.97473719 286.93894781 286.93894781 0 0 0-83.84842125 202.73684156z"  horiz-adv-x="1024" />

    
    <glyph glyph-name="tishi" unicode="&#58905;" d="M512-96C246.896-96 32 118.89599999999996 32 384S246.896 864 512 864s480-214.896 480-480-214.896-480-480-480zM488 648a24 24 0 0 1-24-24v-336a24 24 0 0 1 24-24h48a24 24 0 0 1 24 24V624a24 24 0 0 1-24 24h-48z m0-480a24 24 0 0 1-24-24v-48a24 24 0 0 1 24-24h48a24 24 0 0 1 24 24v48a24 24 0 0 1-24 24h-48z"  horiz-adv-x="1024" />

    
    <glyph glyph-name="tianandizhi" unicode="&#58906;" d="M538.47789125 851.21454563l432-431.97818157a43.63636406 43.63636406 0 0 0 0-61.70181843l-432-432a43.63636406 43.63636406 0 0 0-61.70181844 0l-432 432a43.63636406 43.63636406 0 0 0 0 61.70181843l432 432a43.63636406 43.63636406 0 0 0 61.70181844 0zM507.6488 606.5672728100001c-96.39272719 0-174.54545437-76.03636406-174.54545437-169.85454562 0-74.72727281 110.46545438-207.20727281 155.58545437-258.28363594 4.73454562-5.23636406 11.56363594-8.22545437 18.72-8.22545531 7.15636406 0 13.96363594 2.98909125 18.69818156 8.22545531 45.62181844 50.94545438 156.08727281 183.55636406 156.08727282 258.28363594a167.56363594 167.56363594 0 0 1-51.12000001 120.10909125 177.03272719 177.03272719 0 0 1-123.42545437 49.74545437z m0-250.40727281c-30.26181844 0-57.53454562 17.73818156-69.12 44.94545437a71.36727281 71.36727281 0 0 0 16.23272719 79.30909125 76.32 76.32 0 0 0 81.51272719 15.79636313c27.94909125-11.28 46.18909125-37.81090875 46.18909125-67.26545438 0-40.18909125-33.49090875-72.78545438-74.81454563-72.78545437z"  horiz-adv-x="1024" />

    
    <glyph glyph-name="wanchengtishi" unicode="&#58907;" d="M512-96C246.896-96 32 118.89599999999996 32 384S246.896 864 512 864s480-214.896 480-480-214.896-480-480-480z m-84.864 297.432a24 24 0 0 1 33.96 0l305.472 305.472a24 24 0 0 1 0 33.96l-33.96 33.936a24 24 0 0 1-33.936 0L444.128 320.23199999999997l-118.8 118.8a24 24 0 0 1-33.936 0l-33.96-33.936a24 24 0 0 1 0-33.96l169.704-169.68z"  horiz-adv-x="1024" />

    
    <glyph glyph-name="weixinzhifu" unicode="&#58908;" d="M441.04458594 259.48253062000003c-64.20703969-34.67293125-73.75056656 19.48234688-73.75056657 19.48234688l-80.47056468 182.03288812c-30.97410844 86.48468062 26.79528656 38.99292938 26.79528562 38.99292938s49.55292656-36.3388125 87.19056281-58.47527625c37.581165-22.16469938 80.47056469-6.49411594 80.47056469-6.49411594l526.13631563 235.3693425C910.34327094 787.45414031 750.02331781 864 568.47043062 864 272.14110594 864 32 660.2824125 32 408.98836875c0-144.56466375 79.51056469-273.20462531 203.37876375-356.61165937l-22.30587562-124.43290501s-10.89882-36.3388125 26.82352124-19.48234687c25.722345 11.49176156 91.28467875 52.65880781 130.30584375 77.70350625A619.19981813 619.19981813 0 0 1 568.47043062-46.02326156000004c296.27285438 0 536.47043063 203.7175875 536.47043063 455.01163031 0 72.79056656-20.24470031 141.5434875-56.10351281 202.53170531-167.63289187-97.69408875-557.56218938-324.90343406-607.7927625-351.98107312z"  horiz-adv-x="1144" />

    
    <glyph glyph-name="youjian" unicode="&#58909;" d="M538.47789125 851.21454563l432-431.97818157a43.63636406 43.63636406 0 0 0 0-61.70181843l-432-432a43.63636406 43.63636406 0 0 0-61.70181844 0l-432 432a43.63636406 43.63636406 0 0 0 0 61.70181843l432 432a43.63636406 43.63636406 0 0 0 61.70181844 0zM311.28516406 541.11272719a21.81818156 21.81818156 0 0 1-21.8181825-21.81818157v-43.63636406l218.18181844-109.09090875 218.18181844 109.09090875v43.63636406a21.81818156 21.81818156 0 0 1-21.8181825 21.81818157h-392.72727188z m-21.8181825-109.09090875v-196.36363688a21.81818156 21.81818156 0 0 1 21.8181825-21.81818156h392.72727188a21.81818156 21.81818156 0 0 1 21.8181825 21.81818156v196.36363688l-218.18181844-109.09090969-218.18181844 109.09090969z"  horiz-adv-x="1024" />

    
    <glyph glyph-name="yuanqushangcheng" unicode="&#58910;" d="M919.45660344 726.88301906c0 75.76754719-60.76981125 137.11698094-135.79471688 137.11698094H240.33811344c-75.02490563 0-135.84905625-61.34943375-135.84905719-137.11698094L59.16981125 41.171320310000056C59.16981125-34.59622687000001 119.95773594-96 195.0188675-96h633.962265c74.98867969 0 135.84905625 61.40377313 135.84905625 137.18943375L919.45660344 726.86490562z m-151.33584844-49.01433937c0-67.52603812-26.04679219-131.06716969-73.37660437-178.83169875a247.57132031 247.57132031 0 0 0-177.11094282-74.08301907c-66.92830219 0-129.85358531 26.31849094-177.18339656 74.08301907a252.64301906 252.64301906 0 0 0-73.32226406 178.83169875v0.72452812l61.56679218-0.10867968v-0.7788675c0.10867969-105.07471687 84.80603813-190.55094375 188.920755-190.55094375 104.13283031 0 188.83018875 85.47622688 188.88452813 190.55094375v0.72452812l61.6211325 0.28981125v-0.85132031z"  horiz-adv-x="1024" />

    
    <glyph glyph-name="zhankai" unicode="&#58911;" d="M1842.13333344 864L937.17333312-41.066666250000026 32 864z"  horiz-adv-x="1934" />

    
    <glyph glyph-name="zhiwei" unicode="&#58912;" d="M346.80090875 864h344.03602594a53.2398675 53.2398675 0 0 0 45.09416812-81.56347781L641.80301656 632.56629469a53.2398675 53.2398675 0 0 0-45.09416812-24.91625813H440.928995a53.2398675 53.2398675 0 0 0-45.09416812 24.91625813L301.70674062 782.43652219A53.2398675 53.2398675 0 0 0 346.85414844 864z m288.34712438-342.86474813l138.42365625-345.68646187a53.2398675 53.2398675 0 0 0-12.56460938-58.13793563l-206.03828812-198.37174781a53.2398675 53.2398675 0 0 0-72.83213907-0.95831718l-218.2834575 199.330065a53.2398675 53.2398675 0 0 0-13.57616625 59.09625281L388.27476594 521.13525187a53.2398675 53.2398675 0 0 0 49.40659687 33.43463626h148.00683281a53.2398675 53.2398675 0 0 0 49.51307719-33.43463625z"  horiz-adv-x="1024" />

    
    <glyph glyph-name="VIPquanyi" unicode="&#58913;" d="M1081.30861156 465.3176475L892.22625875 840.43294125A44.12235281 44.12235281 0 0 1 853.88272906 864H263.70861219a44.10352969 44.10352969 0 0 1-38.34352969-23.56705875L36.28272969 465.3176475a43.31294156 43.31294156 0 0 1 7.49176406-48.45176531l484.83764719-499.72705875a42.97411781 42.97411781 0 0 1 30.96470625-13.13882344c11.68941187 0 22.88941219 4.74352969 30.94588218 13.13882344l484.83764719 499.72705875a43.2941175 43.2941175 0 0 1 5.948235 48.45176531z m-232.95999937 15.84941156C757.54390625 385.48705875 663.407435 336.94117687000005 568.38625906 336.94117687000005h-19.53882375c-151.41647062 10.50352969-247.34117625 140.02823531-251.331765 145.86352876a24.0941175 24.0941175 0 0 0 6.64470656 28.10352937 21.36470625 21.36470625 0 0 0 27.55764657-0.33882281c0-1.16705906 88.79058844-119.02117687 220.23529406-128.11294125 88.80941156-6.07999969 177.61882313 37.79764687 266.42823562 130.22117625a21.91058813 21.91058813 0 0 0 23.228235 12.19764656c9.411765-1.61882344 16.80941156-9.39294094 18.35294157-19.2941175a23.7176475 23.7176475 0 0 0-11.6141175-24.41411719z"  horiz-adv-x="1124" />

    
    <glyph glyph-name="zhuanshufuli" unicode="&#58914;" d="M520.8896 576H80.7104c-13.1328 0-25.7088-5.1648-34.8672-14.3232a46.848 46.848 0 0 1-13.824-34.368v-37.0368a46.848 46.848 0 0 1 13.824-34.3488A49.344 49.344 0 0 1 80.7104 441.6h440.1792a49.344 49.344 0 0 1 34.8672 14.3232 46.848 46.848 0 0 1 13.824 34.368v36.7872a46.848 46.848 0 0 1-13.728 34.5024A49.3056 49.3056 0 0 1 520.8896 576z m576 0H656.7104c-13.1328 0-25.7088-5.1648-34.8672-14.3232a46.848 46.848 0 0 1-13.824-34.368v-37.0368a46.848 46.848 0 0 1 13.824-34.3488 49.344 49.344 0 0 1 34.8672-14.3232h440.1792a49.344 49.344 0 0 1 34.8672 14.3232 46.848 46.848 0 0 1 13.824 34.368v36.7872a46.848 46.848 0 0 1-13.728 34.5024A49.3056 49.3056 0 0 1 1096.8896 576z m-575.04-192H156.5504c-27.744-1.536-49.0368-24.864-47.6928-52.2816v-375.4368C107.5136-71.11680000000001 128.8064-94.46400000000006 156.5504-96h365.2992c27.744 1.536 49.0368 24.8832 47.6928 52.2816V331.7184c1.344 27.4176-19.9488 50.7648-47.6928 52.2816z m499.2 0H655.7504c-27.744-1.536-49.0368-24.864-47.6928-52.2816v-375.4368c-1.344-27.3984 19.9488-50.7648 47.6928-52.2816h365.2992c27.744 1.536 49.0368 24.8832 47.6928 52.2816V331.7184c1.344 27.4176-19.9488 50.7648-47.6928 52.2816zM677.0048 602.1696c18.6624-4.7616 37.8816-7.104 57.1776-6.9696 27.648 0.1152 55.104 4.0704 81.5808 11.7696a266.6304 266.6304 0 0 1 120.0192 69.3888c30.144 27.4176 43.1808 68.3136 34.2528 107.5584C950.336 852.576 851.744 882.6048 745.5296 852.096a266.4576 266.4576 0 0 1-120.288-69.6192A167.1936 167.1936 0 0 1 608 760.6272 245.2416 245.2416 0 0 1 470.4896 851.8656a266.1888 266.1888 0 0 1-138.5088 4.8c-39.8976-7.1808-72.768-34.6944-86.016-72.0384-8.928-39.2256 4.1088-80.1216 34.2528-107.5584a266.6304 266.6304 0 0 1 120.0192-69.3696c26.4768-7.776 53.952-11.8272 81.5808-12.0192 47.232-3.1104 93.4272 14.496 125.952 48.0192a129.4464 129.4464 0 0 1 69.2352-41.5296zM549.824 678.5663999999999c-9.4848-36.1152-74.976-59.2896-153.6384-34.8864a200.544 200.544 0 0 0-92.5632 56.6016c-16.1472 15.4176-24.1728 38.1696-21.5232 60.9792 6.4704 24.384 32.8512 35.136 48.1344 39.5328A152.2944 152.2944 0 0 0 372.1088 806.4c21.5616-0.2304 43.008-3.6864 63.6288-10.2528 78.6816-24.1536 122.88-81.4848 113.3952-117.5808h0.6912z m99.2832 61.1136a200.4096 200.4096 0 0 0 92.544 56.6976A214.7136 214.7136 0 0 0 805.0496 806.4c48.1152 0 83.52-19.296 90.4512-44.9664 2.6496-22.848-5.376-45.6384-21.504-61.0944a200.448 200.448 0 0 0-92.544-56.6976 188.5632 188.5632 0 0 0-105.504-4.6464c-15.264 4.416-41.6448 15.168-48.1344 39.5904-2.9376 22.7712 4.7232 45.6192 20.6016 61.344l0.6912-0.2496z"  horiz-adv-x="1188" />

    
    <glyph glyph-name="renshu" unicode="&#58915;" d="M679.499582 393.157679a268.819835 268.819835 0 1 1-264.556837 0A483.079703 483.079703 0 0 1 63.999961-42.751052a28.415983 28.415983 0 0 1 26.710983-28.415983h912.452439a28.415983 28.415983 0 0 1 26.995983 28.415983A483.079703 483.079703 0 0 1 679.499582 393.157679z"  horiz-adv-x="1083" />

    
    <glyph glyph-name="fuwuwaibao" unicode="&#58916;" d="M774.33142813 339.42857156A217.53142875 217.53142875 0 0 0 992 121.7371425C992 1.4857143699999824 894.53714281-96 774.28571469-96c-120.22857188 0-217.71428531 97.48571438-217.71428625 217.7371425V339.42857156h217.75999968z m29.89714312-168.45714281H670.62857188v-80.13714281h133.59999937v-54.40000032l94.46857125 94.46857125-94.46857125 94.46857125v-54.39999937zM249.64571469 864C129.44 864 32 766.51428563 32 646.28571469c0-120.22857188 97.44-217.69142813 217.64571469-217.71428625h217.78285687V646.28571469C467.38285719 766.53714281 369.92 864 249.71428531 864h-0.06857062zM989.94285688 646.2628575C989.94285688 766.51428563 892.4571425 864 772.20571437 864c-120.22857188 0-217.69142813-97.48571438-217.69142906-217.7371425v-217.69142906h217.76000063c120.20571469 0 217.64571469 97.46285719 217.64571375 217.69142906zM32 121.71428531000004C32 1.4857143699999824 129.46285719-96 249.71428531-96c120.22857188 0 217.71428531 97.48571438 217.71428625 217.71428531V339.42857156H249.69142812C129.46285719 339.42857156 32 241.96571438 32 121.71428531000004z"  horiz-adv-x="1024" />

    
    <glyph glyph-name="guanbi" unicode="&#58917;" d="M606.37538469 394.04307656l339.39692343-339.3969225a36.92307656 36.92307656 0 0 0 0-52.20923062l-52.20923156-52.20923157a36.92307656 36.92307656 0 0 0-52.20923062 0L501.95692344 289.62461530999997l-339.39692344-339.39692343a36.92307656 36.92307656 0 0 0-52.20923062 0l-52.20923063 52.20923156a36.92307656 36.92307656 0 0 0 0 52.20923062L397.53846125 394.04307656 58.14153875 733.44a36.92307656 36.92307656 0 0 0 0 52.20923063L110.27692344 837.85846125a36.92307656 36.92307656 0 0 0 52.20923062 0L501.95692344 498.46153875 841.35384594 837.85846125a36.92307656 36.92307656 0 0 0 52.20923062 0l52.20923157-52.20923063a36.92307656 36.92307656 0 0 0 0-52.20923062L606.37538469 394.04307656z"  horiz-adv-x="1024" />

    
    <glyph glyph-name="youxuanfuwu" unicode="&#58918;" d="M250.12571469 864C129.66857187 864 32 766.30857188 32 645.82857188c0-120.50285719 97.64571469-218.19428531 218.12571469-218.19428625h218.23999968V645.82857188C468.34285719 766.33142813 370.65142813 864 250.17142812 864h-0.04571343zM992 645.7828575C992 766.30857188 894.30857188 864 773.82857188 864c-120.50285719 0-218.19428531-97.69142813-218.19428625-218.2171425v-218.14857188h218.23999968c120.45714281 0 218.12571469 97.66857187 218.12571469 218.14857188zM32 122.19428531000005C32 1.691428119999955 129.69142812-96 250.17142812-96c120.50285719 0 218.19428531 97.69142813 218.19428625 218.19428531v218.17142907H250.14857187C129.69142812 340.34285719 32 242.69714250000004 32 122.19428531000005z m741.87428531 218.17142906h-218.23999969v-218.14857187c0-120.52571438 97.69142813-218.2171425 218.19428625-218.2171425C894.30857188-96 992 1.691428119999955 992 122.21714250000002a218.05714313 218.05714313 0 0 1-218.12571469 218.14857188z"  horiz-adv-x="1024" />

    
    <glyph glyph-name="yuanquhuodong" unicode="&#58919;" d="M466.28571406 338.28571406000003H214.85714281v-411.42857156a22.8571425 22.8571425 0 0 0-22.8571425-22.8571425H123.42857188a22.8571425 22.8571425 0 0 0-22.85714344 22.8571425V841.1428575a22.8571425 22.8571425 0 0 0 22.85714344 22.8571425h68.57142843a22.8571425 22.8571425 0 0 0 22.8571425-22.8571425v-45.71428594h365.71428563a45.71428594 45.71428594 0 0 0 45.71428594-45.71428593v-45.71428594h251.42857125a45.71428594 45.71428594 0 0 0 45.71428593-45.714285v-365.71428656a45.71428594 45.71428594 0 0 0-45.71428593-45.714285H512a45.71428594 45.71428594 0 0 0-45.71428594 45.714285v45.71428593z"  horiz-adv-x="1024" />

    
    <glyph glyph-name="weishequ" unicode="&#58920;" d="M969.272-64.41600000000005h-148.992l-114.816 342.48c103.2 44.928 175.368 147.84 175.368 267.6 0 24.96-3.12 49.152-9 72.24C968.6 592.56 1040 504.528 1040 399.816c0-89.52-52.152-166.824-127.704-203.232l79.632-229.104a24 24 0 0 0-22.656-31.872zM106.592-32.54399999999998l76.32 219.48a225.576 225.576 0 0 0 17.256 430.992c-5.88-23.112-9-47.304-9-72.24 0-119.76 72.144-222.696 175.368-267.648l-114.816-342.48H129.248a24 24 0 0 0-22.656 31.92zM419.576 304.55999999999995c-103.2 44.976-175.368 147.888-175.368 267.648C244.208 733.3679999999999 374.84 864 536 864s291.792-130.632 291.792-291.792c0-119.76-72.168-222.672-175.392-267.648l120.888-360.552a26.52 26.52 0 0 0-25.152-34.944H323.84a26.52 26.52 0 0 0-25.152 34.944L419.6 304.55999999999995z"  horiz-adv-x="1075" />

    
    <glyph glyph-name="qiugouhezuo" unicode="&#58921;" d="M710.60612844 19.509634689999984L412.05056656 318.06519656a11.72739281 11.72739281 0 0 1-16.57921312 0l-16.60515844-16.60515843a11.72739281 11.72739281 0 0 1 0-16.57921313l298.58150813-298.55556188a11.72739281 11.72739281 0 0 0 0-16.57921312l-49.76358469-49.76358469a11.72739281 11.72739281 0 0 0-16.60515844 0L38.90151875 492.21179719a23.45478656 23.45478656 0 0 0 0 33.18437156L370.58956156 857.11015687a23.45478656 23.45478656 0 0 0 33.18437156 0L976.003265 284.88082499999996a11.72739281 11.72739281 0 0 0 0-16.57921313l-49.76358469-49.76358468a11.72739281 11.72739281 0 0 0-16.60515843 0L577.94647906 550.30390594a11.72739281 11.72739281 0 0 1-16.60515843 0l-16.55326782-16.60515844a11.72739281 11.72739281 0 0 1 0-16.57921313l331.71398813-331.71398812a11.72739281 11.72739281 0 0 0 0-16.60515844l-49.76358469-49.73763843a11.72739281 11.72739281 0 0 0-16.60515844 0L428.68167125 500.48843063a11.72739281 11.72739281 0 0 1-16.60515844 0l-16.57921312-16.60515844a11.72739281 11.72739281 0 0 1 0-16.57921313L776.94892625 85.87837780999996a11.72739281 11.72739281 0 0 0 0-16.60515844l-49.73763844-49.73763937a11.72739281 11.72739281 0 0 0-16.60515937 0z m58.06616437 572.22933094l132.68559469 132.68559562a23.45478656 23.45478656 0 0 0 33.15842625 0l232.212765-232.21276406a23.45478656 23.45478656 0 0 0 0-33.15842625l-132.68559562-132.68559563a23.45478656 23.45478656 0 0 0-33.18437157 0l-232.21276406 232.212765a23.45478656 23.45478656 0 0 0 0 33.15842532z"  horiz-adv-x="1217" />

    
    <glyph glyph-name="zhaopeixun" unicode="&#58922;" d="M135.47428531 80.32000030999995C182.65142844 243.77142844000002 333.37142844 363.31428561999996 512 363.31428561999996c178.62857156 0 329.37142875-119.54285719 376.52571469-282.97142812h58.8571425c12.02285719 0 21.76000031-9.76000031 21.76000031-21.7828575v-130.60571437a21.76000031 21.76000031 0 0 0-21.76000031-21.78285751H76.61714281A21.76000031 21.76000031 0 0 0 54.8571425-72.04571437000004v130.60571437c0 12.02285719 9.73714312 21.76000031 21.76000031 21.76000031h58.8571425z m332.98285781 104.274285L512 363.33714281000005l43.54285688-178.7428575L512 102.07999969000002l-43.54285688 82.51428562zM512 385.09714312c-132.25142812 0-239.45142844 107.20000031-239.45142844 239.45142844C272.54857156 756.79999969 379.74857188 864 512 864c132.25142812 0 239.45142844-107.20000031 239.45142844-239.45142844 0-132.25142812-107.20000031-239.45142844-239.45142844-239.45142843z"  horiz-adv-x="1024" />

    
    <glyph glyph-name="yuanqumeishijie" unicode="&#58923;" d="M754.029714 376.515048l41.593905-415.939048a70.509714 70.509714 0 1 0-140.336762 0l41.618286 415.939048h-67.705905a77.921524 77.921524 0 0 0-77.824 82.017523l21.016381 399.189334a12.995048 12.995048 0 0 0 12.970667 12.312381h39.619047c12.995048-259.754667 25.965714-389.607619 38.960762-389.607619 12.995048 0 25.965714 129.852952 38.960762 389.607619h51.931429c12.995048-259.754667 25.990095-389.607619 38.985143-389.607619 12.970667 0 25.965714 129.852952 38.960761 389.607619h39.619048c6.89981 0 12.604952-5.412571 12.970667-12.312381l21.016381-399.189334a77.921524 77.921524 0 0 0-77.824-82.017523h-74.532572z m-497.980952 4.949333C172.617143 405.040762 109.714286 510.147048 109.714286 636.245333 109.714286 779.702857 191.122286 896 291.523048 896c100.425143 0 181.833143-116.297143 181.833142-259.730286 0-133.315048-70.314667-243.151238-160.841142-258.023619l41.788952-417.694476a70.509714 70.509714 0 1 0-140.336762 0l42.081524 420.912762z"  horiz-adv-x="1024" />

    
    <glyph glyph-name="zhaogongzuo" unicode="&#58924;" d="M406.50105219 328.79999999999995H94.4v-62.4h312.07578937v-31.22526281h312.05052657v31.2H1030.65263187v62.4H718.55157875V360H406.50105219v-31.2zM350.31578938 703.27578937V829.66736812C350.31578938 848.61473719 363.88210531 864 380.63157875 864h363.78947344c16.74947344 0 30.31578937-15.36 30.31579031-34.33263187v-126.39157876h265.2631575c29.30526281 0 53.05263188-23.74736812 53.05263187-53.05263187v-689.68420969a53.05263188 53.05263188 0 0 0-53.05263187-53.05263187H85.05263187a53.05263188 53.05263188 0 0 0-53.05263187 53.05263187v689.68420969c0 29.30526281 23.74736812 53.05263188 53.05263187 53.05263188h265.2631575z m53.05263187 1e-8h318.31578938V769.76842125c0 22.76210531-14.24842125 41.20421063-31.83157876 41.20421062H435.2c-17.5831575 0-31.83157875-18.44210531-31.83157875-41.17894781v-66.49263187z"  horiz-adv-x="1131" />

    
    <glyph glyph-name="danxuanweixuanzhong" unicode="&#58925;" d="M512-96C246.92-96 32 118.91999999999996 32 384S246.92 864 512 864s480-214.92 480-480-214.92-480-480-480z m0 38.4c243.88000031 0 441.6 197.71999969 441.6 441.6C953.6 627.88000031 755.88000031 825.6 512 825.6 268.11999969 825.6 70.4 627.88000031 70.4 384c0-243.88000031 197.71999969-441.6 441.6-441.6z"  horiz-adv-x="1024" />

    
    <glyph glyph-name="shouye1" unicode="&#58926;" d="M245.33333375 477.46666688V12.266666249999957c0-0.18666656 35.54666625-0.37333313 106.66666594-0.61333312V223.99999968999998a160.00000031 160.00000031 0 1 0 320.00000062 0v-213.12l106.61333344-0.21333282L778.66666625 477.46666688l-266.66666625 241.33333312-266.66666625-241.33333312z m-106.66666688-95.76000001c-26.05333313-17.97333375-63.41333344-16.15999969-87.20000062 5.35999969-25.94666625 23.49333375-25.94666625 61.57333313 0 85.06666688L465.01333344 846.37333312c25.94666625 23.49333375 68.02666688 23.49333375 93.97333312 1e-8L972.53333375 472.13333344c25.94666625-23.49333375 25.94666625-61.57333313 0-85.06666688-23.78666625-21.52000031-61.14666656-23.33333344-87.20000063-5.35999969V12.266666249999957C885.33333312-44.53333312999996 847.86666687-96 792.00000031-96h-560.00000062C176.13333313-96 138.66666688-44.53333312999996 138.66666688 12.266666249999957V381.73333312z m319.99999969-370.31999999c31.97333344-0.10666688 67.51999969-0.18666656 106.66666688-0.26666719V223.99999968999998a53.33333344 53.33333344 0 1 1-106.66666688 0v-212.61333282z"  horiz-adv-x="1024" />

    
    <glyph glyph-name="duoxuanweixuanzhong" unicode="&#58927;" d="M143.45 793.09090869A40.5 40.5 0 0 1 102.90909131 752.55V15.409091310000008a40.5 40.5 0 0 1 40.54090869-40.54090957H880.59090869a40.5 40.5 0 0 1 40.54090957 40.54090957V752.59090869A40.5 40.5 0 0 1 880.55 793.09090869H143.40909131z m0 40.90909131H880.59090869A81.40909131 81.40909131 0 0 0 962 752.55V15.409091310000008A81.40909131 81.40909131 0 0 0 880.55-66H143.40909131A81.40909131 81.40909131 0 0 0 62 15.450000000000045V752.59090869A81.40909131 81.40909131 0 0 0 143.45 834z"  horiz-adv-x="1024" />

    
    <glyph glyph-name="CombinedShape" unicode="&#58928;" d="M512-96C246.896-96 32 118.89599999999996 32 384S246.896 864 512 864s480-214.896 480-480-214.896-480-480-480z m0 41.76c242.04 0 438.24 196.2 438.24 438.24S754.064 822.24 512 822.24 73.76 626.0640000000001 73.76 384 269.936-54.24000000000001 512-54.24000000000001zM272 427.608h501.84a21.84 21.84 0 0 0 21.792-21.816v-43.632a21.84 21.84 0 0 0-21.816-21.84H272a21.84 21.84 0 0 0-21.84 21.84v43.632a21.84 21.84 0 0 0 21.84 21.84z"  horiz-adv-x="1024" />

    
    <glyph glyph-name="saoyisao" unicode="&#58930;" d="M912.00000031-16.00000031000002v160.00000031h79.99999969v-199.99999969a40.00000031 40.00000031 0 0 0-40.00000031-40.00000031H692v79.99999969h220.00000031z m79.99999969 840v-199.99999969h-79.99999969V784.00000031H692V864h259.99999969a40.00000031 40.00000031 0 0 0 40.00000031-40.00000031zM32-55.99999968999998V144h79.99999969v-160.00000031h220.00000031v-79.99999969H72.00000031a40.00000031 40.00000031 0 0 0-40.00000031 40.00000031zM111.99999969 784.00000031v-160.00000031H32V823.99999969a40.00000031 40.00000031 0 0 0 40.00000031 40.00000031h259.99999969v-79.99999969H111.99999969zM51.99999969 424.00000031h920.00000062a19.99999969 19.99999969 0 0 0 19.99999969-20.00000062v-39.99999938a19.99999969 19.99999969 0 0 0-19.99999969-20.00000062H51.99999969a19.99999969 19.99999969 0 0 0-19.99999969 20.00000062v39.99999938a19.99999969 19.99999969 0 0 0 19.99999969 20.00000062z"  horiz-adv-x="1024" />

    


  </font>
</defs>
</svg>
